<svg viewBox="0 0 64 64" xmlns="http://www.w3.org/2000/svg">
  <!-- Background circle -->
  <circle cx="32" cy="32" r="30" fill="#3B82F6" stroke="#1E40AF" stroke-width="2"/>
  
  <!-- AI/Brain icon -->
  <g transform="translate(16, 12)">
    <!-- Brain outline -->
    <path d="M8 6c-2.5 0-4.5 2-4.5 4.5 0 1.2 0.5 2.3 1.3 3.1C4.3 14.2 4 15.1 4 16c0 2.5 2 4.5 4.5 4.5h15c2.5 0 4.5-2 4.5-4.5 0-0.9-0.3-1.8-0.8-2.4 0.8-0.8 1.3-1.9 1.3-3.1C28.5 8 26.5 6 24 6c-1 0-1.9 0.3-2.6 0.8C20.6 6.3 19.8 6 19 6h-3c-0.8 0-1.6 0.3-2.4 0.8C12.9 6.3 12 6 11 6H8z" 
          fill="white" stroke="none"/>
  </g>
  
  <!-- Pen/Writing icon -->
  <g transform="translate(38, 38) rotate(-45)">
    <rect x="0" y="0" width="3" height="12" fill="#F59E0B"/>
    <polygon points="0,12 3,12 1.5,16" fill="#D97706"/>
  </g>
  
  <!-- Sparkle/AI effects -->
  <g fill="#FDE047">
    <circle cx="48" cy="20" r="1.5"/>
    <circle cx="18" cy="48" r="1"/>
    <circle cx="50" cy="45" r="1"/>
    <polygon points="44,12 45,14 47,13 46,15 48,16 46,17 47,19 45,18 44,20 43,18 41,19 42,17 40,16 42,15 41,13 43,14"/>
  </g>
  
  <!-- Document lines -->
  <g transform="translate(20, 42)" fill="white" opacity="0.8">
    <rect x="0" y="0" width="16" height="2" rx="1"/>
    <rect x="0" y="4" width="12" height="2" rx="1"/>
    <rect x="0" y="8" width="14" height="2" rx="1"/>
  </g>
</svg>